<?xml version="1.0" encoding="UTF-8"?>
<svg id="Layer_1" xmlns="http://www.w3.org/2000/svg" version="1.1" viewBox="0 0 181.86 181.37">
  <!-- Generator: Adobe Illustrator 30.6.0, SVG Export Plug-In . SVG Version: 2.1.4 Build 109)  -->
  <defs>
    <style>
      .st0 {
        fill: #231f20;
      }
    </style>
  </defs>
  <g>
    <path class="st0" d="M60.43,129.91h.81c1.35,0,2.48-.12,3.38-.35.91-.24,1.72-.87,2.43-1.92.71-1.04,1.06-2.64,1.06-4.8v-60.61c0-2.96-.69-4.88-2.07-5.76-1.38-.87-3.12-1.31-5.2-1.31h-.4v-1.01h31.52c8.89,0,16.11,1.79,21.67,5.35,5.55,3.57,9.53,8.23,11.92,13.99,2.39,5.76,3.59,12.11,3.59,19.04s-1.2,13.28-3.59,19.04c-2.39,5.76-6.36,10.42-11.92,13.99-5.56,3.57-12.78,5.35-21.67,5.35h-31.52v-1.01ZM91.44,129.3c6.94,0,12.64-1.72,17.12-5.15,4.48-3.44,7.73-7.93,9.75-13.49,2.02-5.56,3.03-11.63,3.03-18.23s-1.01-12.66-3.03-18.18c-2.02-5.52-5.27-9.98-9.75-13.39-4.48-3.4-10.19-5.1-17.12-5.1h-15.76v73.54h15.76Z"/>
    <path class="st0" d="M39.68,105.4c2.09,0,3.65.48,4.7,1.43,1.04.95,1.56,2.2,1.56,3.74,0,1.36-.41,2.52-1.22,3.47-.82.95-1.91,1.43-3.27,1.43-.46,0-.98-.11-1.56-.34-.59-.23-1.02-.57-1.29-1.02-1,1.09-1.66,2.41-1.97,3.95-.32,1.54-.48,3.18-.48,4.9,0,2.36.57,4.63,1.7,6.81,1.13,2.18,2.77,4.08,4.9,5.72,2.13,1.63,4.7,2.95,7.69,3.95,2.99,1,6.31,1.5,9.94,1.5,6.17,0,11.39-1.41,15.66-4.22,4.26-2.81,7.71-6.42,10.35-10.82,2.63-4.4,4.54-9.28,5.72-14.63,1.18-5.35,1.81-10.53,1.91-15.52.09-8.08.88-15.34,2.38-21.78,1.5-6.44,3.63-11.91,6.4-16.4,2.77-4.49,6.22-7.96,10.35-10.41,4.13-2.45,8.87-3.68,14.22-3.68,4.81,0,8.71,1.16,11.71,3.47,2.99,2.31,4.49,5.33,4.49,9.05,0,2.91-1.02,5.08-3.06,6.53-2.04,1.45-4.47,2.18-7.28,2.18,1-1.54,1.75-3.04,2.24-4.49.5-1.45.75-3.27.75-5.45,0-3.27-.95-5.69-2.86-7.28-1.91-1.59-4.18-2.38-6.81-2.38-3.54,0-6.56.7-9.05,2.11-2.5,1.41-4.61,3.34-6.33,5.79-1.73,2.45-3.11,5.31-4.15,8.58-1.04,3.27-1.88,6.74-2.52,10.41-.64,3.68-1.11,7.47-1.43,11.37-.32,3.9-.61,7.76-.88,11.57-.64,9.35-2.29,17.08-4.97,23.21-2.68,6.13-5.97,11.01-9.87,14.63-3.9,3.63-8.26,6.17-13.07,7.62-4.81,1.45-9.76,2.18-14.84,2.18-4.08,0-7.83-.66-11.23-1.97-3.4-1.31-6.33-3.13-8.78-5.44-2.45-2.31-4.33-5.06-5.65-8.24-1.31-3.18-1.97-6.67-1.97-10.48,0-3.18.73-5.81,2.18-7.9,1.45-2.09,3.36-3.13,5.72-3.13Z"/>
  </g>
  <g>
    <path class="st0" d="M120.08,175.32c-1.91.67-3.85,1.25-5.8,1.79-.98.25-1.96.51-2.94.75l-2.97.64c-3.97.78-7.99,1.28-12.03,1.52-16.15,1-32.55-2.53-46.81-10.14-7.14-3.79-13.76-8.55-19.61-14.12-5.85-5.57-10.94-11.93-15.08-18.86-4.15-6.93-7.32-14.43-9.42-22.22-1.06-3.89-1.83-7.86-2.35-11.86-.06-.5-.11-1-.17-1.5l-.08-.75c-.03-.25-.05-.5-.07-.75l-.13-1.51-.1-1.51-.05-.75c-.01-.25-.02-.5-.03-.76l-.06-1.51-.02-1.51v-.76c0-.1,0-.2,0-.3.23-.54.45-1.09.66-1.64,1.38-1.2,2.64-2.63,3.92-4.04,1-1.1,2.07-2.2,3.02-3.36,3.45-2.01,7.63-5.49,10.79-9.63,3.51-4.56,5.55-9.07,7.73-12.95-3.61,1.88-8.31,5.63-11.78,10.18-2.98,3.88-4.91,7.73-6.76,11.17-.01.02-.03.04-.04.06-.95,1.34-2.26,2.64-3.37,3.85-.94,1.03-1.91,2.16-2.91,3.11.07-.19.13-.38.2-.57.81-2.43,1.47-4.9,2.06-7.38.94-3.99,1.7-8.01,2.67-12,.11-.07.22-.18.31-.32.69-.99,1.62-1.88,2.46-2.75.83-.86,1.71-1.91,2.64-2.59.01-.01.03-.02.04-.03,2.41-1.19,5.09-2.34,7.77-4.47,1.57-1.24,3-2.8,4.21-4.46,1.21-1.65,2.21-3.39,2.88-4.97-2.71,1.3-5.89,2.37-9.11,4.93-1.46,1.15-2.79,2.59-3.93,4.12-1.13,1.53-2.06,3.13-2.72,4.62-.8.72-1.56,1.56-2.31,2.34-.64.66-1.28,1.32-1.88,2.01.11-.45.23-.89.35-1.33.67-2.46,1.46-4.9,2.44-7.27,1.03-2.47,2.28-4.86,3.68-7.15.2-.33.4-.65.61-.97.08-.05.16-.11.24-.19.17-.18.36-.35.56-.52.2-.17.4-.33.62-.5.42-.33.86-.64,1.28-.95.41-.31.84-.64,1.29-.96.44-.32.9-.61,1.36-.85.01,0,.03-.01.04-.02.58-.2,1.18-.37,1.79-.57.61-.19,1.23-.38,1.86-.59,1.26-.42,2.56-.9,3.89-1.54,1.56-.74,3.05-1.71,4.39-2.76,1.33-1.05,2.52-2.17,3.42-3.22-1.31.26-2.73.48-4.24.84-1.51.36-3.11.85-4.77,1.65-1.5.72-2.93,1.69-4.15,2.74-.61.53-1.17,1.07-1.67,1.63-.5.55-.94,1.1-1.31,1.63-.41.24-.8.52-1.18.8-.39.28-.77.57-1.14.84-.39.29-.78.58-1.17.87,2.42-3.6,5.14-7.01,7.88-10.38.42-.52.85-1.04,1.27-1.56.07-.08.09-.17.07-.25.45-.53.91-1.07,1.33-1.63,1.92-1.2,4.21-3.26,5.87-5.67,1.85-2.66,2.85-5.27,3.96-7.52-2.02,1.13-4.6,3.35-6.43,6-1.57,2.26-2.53,4.49-3.47,6.49,0,.01-.02.02-.02.03-.45.7-1.06,1.38-1.61,2.03-.08,0-.17.04-.24.13-.6.73-1.19,1.46-1.79,2.19-.01.01-.03.03-.04.04-.1.09-.18.2-.23.29-2.28,2.81-4.51,5.65-6.56,8.62.07-.2.14-.41.21-.61.14-.4.29-.81.44-1.21.15-.41.29-.82.41-1.24.79-.66,1.57-1.55,2.25-2.62.68-1.07,1.26-2.32,1.65-3.76.44-1.58.68-3.22.86-4.87.18-1.64.32-3.27.52-4.76-.85.3-1.77,1.01-2.6,2.11-.83,1.09-1.57,2.56-2.05,4.28-.41,1.47-.64,2.97-.79,4.44-.14,1.46-.19,2.88-.24,4.2,0,.01,0,.03,0,.04-.09.5-.25.99-.42,1.47-.17.48-.36.94-.52,1.39-.16.46-.32.94-.49,1.41-.17.47-.35.93-.57,1.32-.1.19-.13.4-.11.59-1.36,2.12-2.6,4.3-3.67,6.57-1.1,2.34-2,4.77-2.74,7.24-.22.74-.44,1.49-.64,2.23.02-.52.05-1.04.07-1.55.05-1.2.02-2.56.26-3.69,0-.02,0-.03,0-.05,1.02-2.49,2.27-5.13,2.87-8.49.36-1.97.4-4.09.21-6.13-.19-2.04-.59-4-1.13-5.64-1.17,2.76-2.85,5.68-3.56,9.72-.33,1.83-.38,3.79-.22,5.69.16,1.89.53,3.71,1.02,5.27-.13,1.07-.13,2.2-.18,3.28-.06,1.37-.14,2.74,0,4.1-.81,3.35-1.49,6.72-2.23,10.08-.56,2.5-1.16,5-1.89,7.46-.22.73-.45,1.45-.7,2.16.06-1.1.06-2.21.08-3.33.03-1.44.1-2.92.04-4.37,1.28-3.67,2.13-8.88,1.76-13.91-.39-5.55-1.85-10.12-2.79-14.32-1.48,3.69-2.55,9.43-2.14,14.94.33,4.72,1.44,8.73,2.34,12.41,0,.02,0,.05,0,.07.17,1.58.05,3.36.02,4.95-.03,1.61,0,3.34-.21,4.87-.05.35,0,.68.08.92-.15.39-.31.77-.47,1.16h-.1c0,.08,0,.16,0,.24,0,.02-.01.03-.02.05h.02c0,.17,0,.32,0,.48v.76s.03,1.52.03,1.52l.06,1.52c.01.25.02.51.03.76l.05.76.1,1.52.14,1.52c.02.25.04.51.07.76l.09.76c.06.5.11,1.01.18,1.51.54,4.02,1.32,8.02,2.4,11.93,2.14,7.83,5.36,15.37,9.55,22.32,4.18,6.95,9.32,13.33,15.21,18.91,5.89,5.58,12.55,10.33,19.73,14.11,14.34,7.59,30.8,11.07,46.97,10.02,4.04-.25,8.07-.77,12.04-1.56l2.97-.65c.98-.24,1.96-.5,2.94-.76,1.95-.55,3.89-1.13,5.8-1.81,7.64-2.67,14.92-6.39,21.56-11.02-6.66,4.61-13.94,8.3-21.59,10.94Z"/>
    <path class="st0" d="M90.28,2.42h-.79c-.26.01-.53.02-.79.03l-1.58.05-1.57.08c-.52.03-1.05.08-1.57.11-4.19.33-8.36.95-12.46,1.88-4.1.92-8.14,2.13-12.06,3.63-1.96.75-3.9,1.56-5.81,2.45-1.91.88-3.78,1.83-5.62,2.86-3.67,2.04-7.2,4.33-10.55,6.86,3.36-2.52,6.9-4.8,10.57-6.83,1.84-1.01,3.71-1.96,5.62-2.84,1.91-.88,3.85-1.69,5.81-2.43,3.93-1.49,7.96-2.68,12.06-3.59,4.1-.91,8.26-1.52,12.44-1.84.52-.04,1.05-.08,1.57-.11l1.57-.08,1.57-.05c.26,0,.52-.01.79-.01h.79c.26,0,.52-.01.79-.01h.79c.52.02,1.05.02,1.57.04,1.05.04,2.1.07,3.14.15,4.19.26,8.35.84,12.46,1.68,8.21,1.71,16.17,4.61,23.57,8.56,7.39,3.95,14.22,8.96,20.22,14.82,6,5.86,11.16,12.56,15.28,19.85,4.12,7.29,7.21,15.17,9.1,23.33,1.82,7.79,2.56,15.82,2.25,23.81-.34.36-.22,1.17-.59,1.49-1.38,1.19-2.64,2.63-3.92,4.03-1,1.1-2.07,2.19-3.02,3.36-3.45,2-7.64,5.48-10.8,9.61-3.51,4.55-5.56,9.07-7.75,12.94,3.61-1.88,8.32-5.62,11.8-10.16,2.99-3.87,4.92-7.72,6.77-11.16.01-.02.03-.04.04-.06.95-1.34,2.27-2.63,3.38-3.85.94-1.03,1.91-2.16,2.92-3.11-.07.19-.13.38-.2.57-.82,2.42-1.48,4.89-2.07,7.38-.95,3.99-1.71,8.01-2.68,12-.11.07-.22.18-.31.32-.69.99-1.63,1.88-2.46,2.75-.83.86-1.71,1.9-2.64,2.59-.01.01-.03.02-.04.03-2.42,1.19-5.1,2.33-7.78,4.46-1.57,1.23-3,2.8-4.22,4.45-1.21,1.65-2.21,3.39-2.89,4.97,2.71-1.29,5.89-2.36,9.11-4.92,1.46-1.15,2.8-2.59,3.93-4.11,1.13-1.52,2.06-3.13,2.72-4.62.8-.72,1.56-1.56,2.31-2.34.64-.66,1.28-1.32,1.88-2.01-.11.45-.23.89-.35,1.33-.68,2.46-1.46,4.9-2.45,7.26-1.03,2.47-2.28,4.85-3.69,7.15-.2.33-.4.65-.61.97-.08.05-.16.11-.24.19-.17.18-.36.35-.56.52-.2.17-.4.33-.62.5-.42.33-.86.64-1.28.94-.41.31-.85.64-1.29.96-.44.32-.9.61-1.36.84-.01,0-.03.01-.04.02-.58.2-1.18.37-1.79.56-.61.19-1.23.38-1.86.59-1.26.42-2.56.9-3.9,1.54-1.56.74-3.06,1.7-4.39,2.75-1.34,1.05-2.52,2.16-3.42,3.22,1.31-.26,2.73-.47,4.24-.83,1.51-.36,3.11-.85,4.77-1.64,1.5-.72,2.93-1.68,4.15-2.73.61-.53,1.18-1.07,1.68-1.62.5-.55.94-1.1,1.31-1.63.41-.24.8-.52,1.18-.8.39-.28.77-.57,1.14-.84.39-.29.78-.57,1.17-.87-2.42,3.6-5.14,7-7.9,10.37-.42.52-.85,1.04-1.27,1.56-.07.08-.09.17-.07.25-.45.53-.91,1.07-1.33,1.62-1.92,1.2-4.21,3.25-5.88,5.66-1.85,2.66-2.86,5.27-3.97,7.51,2.02-1.13,4.6-3.34,6.44-5.99,1.58-2.26,2.54-4.49,3.48-6.48,0-.01.02-.02.02-.03.45-.7,1.06-1.38,1.61-2.03.08,0,.17-.04.24-.13.6-.73,1.19-1.46,1.79-2.19.01-.01.03-.03.04-.04.1-.09.18-.19.23-.29,2.28-2.81,4.52-5.65,6.57-8.62-.07.2-.14.41-.21.61-.14.4-.3.81-.45,1.21-.15.41-.29.82-.41,1.24-.79.66-1.57,1.55-2.25,2.62-.68,1.07-1.26,2.32-1.65,3.75-.44,1.58-.68,3.22-.86,4.87-.18,1.64-.32,3.27-.53,4.76.85-.3,1.77-1.01,2.6-2.1.83-1.09,1.57-2.56,2.05-4.28.41-1.46.65-2.97.79-4.44.14-1.46.19-2.88.25-4.2,0-.01,0-.03,0-.04.1-.5.25-.99.42-1.46.17-.48.36-.94.52-1.39.16-.46.32-.94.49-1.41.17-.47.35-.92.57-1.32.1-.19.13-.4.11-.59,1.36-2.12,2.61-4.3,3.68-6.57,1.11-2.34,2-4.77,2.75-7.24.23-.74.44-1.49.64-2.23-.02.52-.05,1.04-.07,1.55-.05,1.2-.02,2.56-.27,3.69,0,.02,0,.03,0,.05-1.02,2.49-2.28,5.12-2.88,8.49-.36,1.97-.4,4.09-.22,6.13.18,2.04.59,4,1.12,5.64,1.17-2.76,2.86-5.67,3.58-9.72.33-1.83.38-3.79.23-5.69-.16-1.89-.52-3.71-1.01-5.27.13-1.07.14-2.2.18-3.28.06-1.37.15-2.74,0-4.1.82-3.34,1.49-6.72,2.25-10.08.56-2.5,1.16-4.99,1.9-7.45.22-.73.45-1.45.7-2.16-.06,1.1-.07,2.21-.09,3.33-.03,1.44-.1,2.92-.05,4.37-1.28,3.67-2.14,8.88-1.77,13.91.38,5.55,1.84,10.12,2.77,14.32,1.49-3.68,2.56-9.42,2.16-14.94-.32-4.72-1.43-8.73-2.32-12.41,0-.02,0-.05,0-.07-.17-1.58-.04-3.36-.01-4.95.03-1.61,0-3.34.22-4.87.05-.35,0-.68-.08-.92.02-.06.07-.18.13-.32l.31.02c.41-8.42-.35-16.89-2.29-25.09-1.93-8.2-5.06-16.12-9.23-23.43-4.17-7.32-9.38-14.04-15.42-19.9-6.04-5.87-12.91-10.87-20.34-14.82-7.43-3.95-15.43-6.83-23.67-8.52-4.12-.84-8.3-1.4-12.5-1.65-1.05-.08-2.1-.1-3.15-.14-.53-.02-1.05-.01-1.58-.02h-.79c-.26-.01-.53,0-.79,0Z"/>
  </g>
</svg>